<svg xmlns="http://www.w3.org/2000/svg" width="600" height="600" viewBox="0 0 600 600">

  <symbol id="house" viewBox="0 0 80 80">
    <path d="M75.892 43.182 78 41.094l-9.94-9.845V4.398H54.205v13.127L40.45 4 3 41.193l2.108 2.089 7.832-7.757v37.591H9.024V76h64.157v-2.884h-5.12v-37.69l7.83 7.756Zm-18.775-35.8h7.931v20.983l-7.931-7.857V7.381Zm7.931 65.635H15.952V32.54L40.45 8.177 65.048 32.54v40.476ZM33.121 68.54h16.064V44.773H33.12v23.768Zm13.052-2.884h-10.14v-18h10.14v18ZM40.85 39.304c-4.216 0-7.73-3.48-7.73-7.757 0-4.276 3.413-7.657 7.73-7.657 4.318 0 7.832 3.38 7.832 7.657 0 4.276-3.514 7.757-7.831 7.757Zm5.02-7.757c0-2.785-2.309-4.972-5.02-4.972-2.71 0-5.02 2.287-5.02 4.972 0 2.784 2.31 4.972 5.02 4.972 2.812 0 5.02-2.287 5.02-4.972Zm-22.79 13.226h-3.013v3.879h3.012v-3.879Zm3.011 0h3.012v3.879h-3.012v-3.879ZM23.08 50.74h-3.012v3.879h3.012V50.74Zm3.012 0h3.012v3.879h-3.012V50.74Zm29.117-5.967h-3.012v3.879h3.012v-3.879Zm3.012 0h3.012v3.879H58.22v-3.879Zm-3.012 5.967h-3.012v3.879h3.012V50.74Zm3.012 0h3.012v3.879H58.22V50.74Z" />
  </symbol>

  <symbol id="burger" viewBox="0 0 80 80">
    <path d="M72.531 36.375v-.001c.024-.828.055-1.945-.017-2.233C71.816 18.518 57.454 6 39.801 6 22.146 6 7.684 18.518 6.986 34.14v3.005h65.527c0-.168.008-.447.017-.77Zm-32.73-27.37c15.957 0 29.123 11.216 29.721 25.136H9.98c.698-13.92 13.864-25.137 29.822-25.137ZM23.244 48.861l-5.386-4.006-5.485 4.006-6.383-4.707 1.795-2.403 4.588 3.305 5.485-4.006 5.386 4.006 5.486-4.006 5.485 4.006 5.486-4.006 5.386 4.006 5.485-4.006 5.486 4.006 5.485-4.006 5.486 4.006 4.588-3.305 1.695 2.403-6.283 4.707-5.486-4.006-5.485 4.006-5.486-4.006-5.485 4.006-5.386-4.006-5.486 4.006-5.485-4.006-5.486 4.006ZM6.29 52.067H73.71c2.394 0 4.289 2.003 4.289 4.206v3.505c0 2.403-1.995 4.306-4.289 4.306h-.997v1.001c0 5.408-4.388 9.915-9.874 9.915H17.16c-5.386 0-9.874-4.406-9.874-9.915v-1H6.29C3.895 64.084 2 62.18 2 59.877v-3.505c0-2.303 1.895-4.306 4.289-4.306Zm56.65 19.929c3.79 0 6.883-3.105 6.883-6.91v-1.002H10.178v1.001c0 3.806 3.092 6.91 6.882 6.91h45.88ZM73.712 61.08c.698 0 1.297-.601 1.297-1.302h.1v-3.405c0-.701-.599-1.302-1.297-1.302H6.289c-.698 0-1.297.6-1.297 1.202v3.505c0 .7.599 1.302 1.297 1.302H73.71ZM41.895 21.623a1.999 1.999 0 0 1-1.995 2.003 1.999 1.999 0 0 1-1.994-2.003c0-1.106.893-2.003 1.994-2.003 1.102 0 1.995.897 1.995 2.003Zm-9.974-3.005a1.999 1.999 0 0 0 1.995-2.002 1.999 1.999 0 0 0-1.995-2.003 1.999 1.999 0 0 0-1.994 2.003c0 1.106.893 2.002 1.994 2.002Zm17.953-2.002a1.999 1.999 0 0 1-1.995 2.002 1.999 1.999 0 0 1-1.994-2.002c0-1.107.893-2.003 1.994-2.003 1.102 0 1.995.896 1.995 2.003Z" />
  </symbol>

  <symbol id="present" viewBox="0 0 80 80">
    <path d="M69.2 25.117H44.8C58.4 18.319 59.5 14.02 59 11.62c-1.1-3.899-5.6-6.898-9.8-5.298-5.5 2.099-7 10.296-8.5 16.194-1.9-5.998-3.7-13.595-8-17.494-1.2-1.1-3-2.2-5.7-2-4 .4-9.7 5.299-7.3 10.797 2.2 5.299 9.5 8.697 14.4 11.397H11.8c-1.6 0-2.8 1.3-2.8 2.799v11.196c0 1.6 1.3 2.8 2.8 2.8h.3V78h57V42.011h.1c1.6 0 2.8-1.3 2.8-2.799V28.016c0-1.6-1.3-2.9-2.8-2.9ZM50.8 8.822c2.1-.3 4.9 1.3 5.2 3.199.4 2.699-3.3 5.198-5 6.298-2.5 1.7-4.9 2.599-7.2 3.999.8-3.7 2.5-12.896 7-13.496Zm-22.6 9.797c-2.2-1.5-6.4-4.399-6.3-7.698.1-3.599 5.7-6.498 8.7-3.799 3.8 3.3 5.6 10.997 7 16.395-3.2-1.6-6.2-2.799-9.4-4.898ZM34.1 75H15V42.01h19.1v32.99Zm0-35.989H12V28.116h22.1v10.896Zm10 35.989H37V28.116h7.1V75Zm22 0h-19V42.01h19.1v32.99h-.1ZM69 39.012H47.1V28.116H69v10.896Z" />
  </symbol>

  <symbol id="vk" viewBox="0 0 24 14">
    <path d="M23.45.948c.166-.546 0-.948-.795-.948H20.03c-.668 0-.976.347-1.143.73 0 0-1.335 3.196-3.226 5.272-.612.602-.89.793-1.224.793-.167 0-.418-.191-.418-.738V.948c0-.656-.184-.948-.74-.948H9.151c-.417 0-.668.304-.668.593 0 .621.946.765 1.043 2.513v3.798c0 .833-.153.984-.487.984-.89 0-3.055-3.211-4.34-6.885C4.45.288 4.198 0 3.527 0H.9C.15 0 0 .347 0 .73c0 .682.89 4.07 4.145 8.551C6.315 12.341 9.37 14 12.153 14c1.669 0 1.875-.368 1.875-1.003v-2.313c0-.737.158-.884.687-.884.39 0 1.057.192 2.615 1.667C19.11 13.216 19.403 14 20.405 14h2.625c.75 0 1.126-.368.91-1.096-.238-.724-1.088-1.775-2.215-3.022-.612-.71-1.53-1.475-1.809-1.858-.389-.491-.278-.71 0-1.147 0 0 3.2-4.426 3.533-5.929h.001Z" />
  </symbol>

  <symbol id="tg" viewBox="0 0 22 18">
    <path d="m21.44 1.622-3.17 14.944c-.239 1.055-.862 1.317-1.748.82l-4.828-3.557-2.33 2.24c-.258.259-.473.474-.97.474l.347-4.917 8.948-8.086c.39-.347-.085-.54-.604-.192L6.022 10.314 1.26 8.823C.224 8.5.205 7.787 1.476 7.29L20.103.113c.863-.323 1.617.192 1.336 1.51Z" />
  </symbol>

  <symbol id="yt" viewBox="0 0 20 14">
    <path d="M17.181 0H2.813C1.306 0 0 1.3 0 2.8v8.3C0 12.7 1.306 14 2.813 14h14.368c1.608 0 2.814-1.3 2.814-2.8V2.8c.1-1.5-1.206-2.8-2.814-2.8ZM7.033 10.4V3.6L13.866 7l-6.833 3.4Z" />
  </symbol>

  <use href="#house" width="80" height="80" x="0" y="0" fill="#81b3d2" />
  <use href="#burger" width="80" height="80" x="0" y="80" fill="#81b3d2" />
  <use href="#present" width="80" height="80" x="0" y="160" fill="#81b3d2" />
  <use href="#vk" width="24" height="14" x="0" y="240" />
  <use href="#tg" width="22" height="18" x="0" y="260" fill="#81b3d2" />
  <use href="#yt" width="20" height="14" x="0" y="280" fill="#81b3d2" />

  <view id="house-v" viewBox="0 0 80 80" />
  <view id="burger-v" viewBox="0 80 80 80" />
  <view id="present-v" viewBox="0 160 80 80" />
  <view id="vk-v" viewBox="0 240 24 14" />
  <view id="tg-v" viewBox="0 260 22 18" />
  <view id="yt-v" viewBox="0 280 20 14" />
</svg>
