<svg width="27" height="35" fill="red" xmlns="http://www.w3.org/2000/svg"><path d="M13.5 0 0 1.416V26.16l13.5 8.033L27 26.16V1.416L13.642.015 13.5 0Zm11.734 25.156L13.5 32.138 1.766 25.156V15.014l11.684 6.954.02 1.26-8.016-4.77-.012 1.223 8.047 4.836.02 1.294-8.044-4.786-.012 1.224 8.047 4.836 8.125-4.861v-1.23l-.01.007v-3.996l3.619-2.162v10.313Zm-.01-11.629-3.21 1.892-1.482.874-7.067-4.205-.012 1.224 6.04 3.592-.052.03-.13.078-.86.506-4.986-2.968-.011 1.223 3.936 2.342-.929.62-.022.015-2.974-1.753-.011 1.224 1.95 1.148-1.988 1.193-11.624-6.91 11.642-6.997v.002l11.791 6.87Zm.01-1.23L13.438 5.34V5.34l-.002.001h-.002L1.767 12.29V3.006L13.5 1.776l11.733 1.23v9.29Z"/></svg>